<svg width="32" height="32" viewBox="0 0 32 32" fill="none" xmlns="http://www.w3.org/2000/svg">
<g clip-path="url(#clip0_0_996)">
<path d="M-24 16C-24 21.2529 -22.9654 26.4543 -20.9552 31.3073C-18.945 36.1604 -15.9986 40.5699 -12.2843 44.2843C-8.56993 47.9986 -4.16036 50.945 0.692663 52.9552C5.54569 54.9654 10.7471 56 16 56C21.2529 56 26.4543 54.9654 31.3073 52.9552C36.1604 50.945 40.5699 47.9986 44.2843 44.2843C47.9986 40.5699 50.945 36.1604 52.9552 31.3073C54.9654 26.4543 56 21.2529 56 16C56 10.7471 54.9654 5.54569 52.9552 0.692665C50.945 -4.16036 47.9986 -8.56993 44.2843 -12.2843C40.5699 -15.9986 36.1604 -18.945 31.3073 -20.9552C26.4543 -22.9654 21.2529 -24 16 -24C10.7471 -24 5.54569 -22.9654 0.692663 -20.9552C-4.16036 -18.945 -8.56993 -15.9986 -12.2843 -12.2843C-15.9986 -8.56993 -18.945 -4.16036 -20.9552 0.692665C-22.9654 5.54569 -24 10.7471 -24 16Z" fill="#FFF1DC"/>
<path d="M27.1281 12.7971C26.9251 11.9594 26.1571 10.5666 25.3612 9.42045C25.011 8.91703 24.2349 9.0404 24.0519 9.62739C23.7654 10.5347 23.3097 11.5774 22.5178 12.5146C22.3725 12.6857 22.09 12.5981 22.076 12.3733C21.9248 10.0512 20.8245 4.04802 13.0643 3.20436C12.529 3.14665 12.1112 3.66599 12.2863 4.17537C12.8713 5.88659 13.3409 9.1757 10.6606 11.1914C10.5512 11.2729 10.4 11.2451 10.3144 11.1396C9.42099 10.0015 8.30671 9.30305 6.79646 9.0205C6.26917 8.923 5.82545 9.40254 5.94682 9.92585C6.18162 10.9347 6.27912 12.6558 5.31805 14.9998C3.70433 18.9296 1.84389 28.4209 16.6499 28.4209C31.4559 28.4209 27.4126 13.9731 27.1281 12.7971ZM9.84282 23.4027C9.72991 23.5086 9.59721 23.5911 9.45234 23.6456C9.30746 23.7002 9.15325 23.7256 8.99854 23.7204C8.84383 23.7152 8.69166 23.6796 8.55075 23.6155C8.40984 23.5514 8.28296 23.4602 8.17737 23.347C6.2055 21.2378 7.06309 17.304 7.16656 16.8622C7.3158 16.2295 7.95054 15.8355 8.58329 15.9867C8.7337 16.0221 8.87567 16.0867 9.00109 16.177C9.1265 16.2672 9.2329 16.3813 9.31421 16.5127C9.39552 16.6441 9.45014 16.7902 9.47495 16.9427C9.49976 17.0952 9.49427 17.2511 9.4588 17.4015C9.27176 18.2054 8.9514 20.7244 9.89655 21.7372C10.3423 22.2128 10.3184 22.959 9.84282 23.4027Z" fill="#FC7032"/>
<path d="M26.8774 12.0728C26.5371 11.2749 25.9561 10.278 25.3612 9.42045C25.011 8.91703 24.2349 9.0404 24.0519 9.62738C23.7654 10.5347 23.3097 11.5774 22.5178 12.5146C22.3725 12.6857 22.09 12.5981 22.076 12.3733C21.9248 10.0512 20.8244 4.04802 13.0643 3.20436C12.529 3.14665 12.1112 3.66599 12.2863 4.17537C12.8713 5.88659 13.3409 9.1757 10.6606 11.1914C10.5512 11.2729 10.4 11.2451 10.3144 11.1396C9.42099 10.0015 8.30671 9.30305 6.79646 9.0205C6.26916 8.923 5.82544 9.40254 5.94682 9.92585C6.18161 10.9347 6.27911 12.6558 5.31805 14.9998C3.90928 18.4302 2.31546 26.0949 11.7749 27.9911C20.0066 27.1773 26.4894 20.422 26.8774 12.0728ZM9.84282 23.4027C9.72991 23.5086 9.59721 23.5911 9.45233 23.6456C9.30745 23.7002 9.15324 23.7256 8.99854 23.7204C8.84383 23.7152 8.69166 23.6796 8.55075 23.6155C8.40984 23.5514 8.28296 23.4602 8.17737 23.347C6.20549 21.2378 7.06309 17.304 7.16656 16.8622C7.31579 16.2295 7.95053 15.8355 8.58329 15.9867C8.7337 16.0221 8.87567 16.0867 9.00108 16.177C9.1265 16.2672 9.2329 16.3813 9.31421 16.5127C9.39551 16.6441 9.45013 16.7902 9.47494 16.9427C9.49975 17.0952 9.49426 17.2511 9.45879 17.4015C9.27175 18.2054 8.9514 20.7244 9.89654 21.7372C10.3423 22.2128 10.3184 22.959 9.84282 23.4027Z" fill="#FF7C33"/>
<path d="M21.6538 9.94376C20.8837 7.25556 18.7865 3.82716 13.0619 3.20436C12.5266 3.14665 12.1088 3.66599 12.2839 4.17537C12.8689 5.88659 13.3385 9.1757 10.6582 11.1914C10.5488 11.2729 10.3975 11.2451 10.312 11.1396C9.41857 10.0015 8.30429 9.30305 6.79404 9.0205C6.26675 8.923 5.82303 9.40254 5.94441 9.92585C6.1792 10.9347 6.2767 12.6558 5.31563 14.9998C4.61125 16.715 3.85911 19.4908 4.46997 22.0755C4.8162 22.0974 5.16242 22.1113 5.51461 22.1113C6.13344 22.1113 6.74231 22.0755 7.34323 22.0098C6.49757 19.8907 7.08057 17.2244 7.16415 16.8642C7.31338 16.2315 7.94812 15.8375 8.58087 15.9887C8.73128 16.0241 8.87325 16.0887 8.99867 16.179C9.12408 16.2692 9.23049 16.3833 9.31179 16.5147C9.3931 16.6461 9.44772 16.7922 9.47253 16.9447C9.49734 17.0972 9.49185 17.2531 9.45638 17.4035C9.27929 18.1656 8.9848 20.4677 9.75883 21.5661C15.4954 20.0718 20.0301 15.6226 21.6538 9.94376Z" fill="#FF8D4D"/>
<path d="M13.062 3.20436C12.5267 3.14665 12.1089 3.66599 12.284 4.17537C12.869 5.88659 13.3386 9.1757 10.6583 11.1914C10.5489 11.2729 10.3977 11.2451 10.3121 11.1396C9.41869 10.0015 8.30441 9.30305 6.79416 9.0205C6.26687 8.923 5.82315 9.40254 5.94453 9.92585C6.17932 10.9347 6.27682 12.6558 5.31575 14.9998C5.21596 15.2457 5.12176 15.4938 5.0332 15.744C10.8553 14.4168 15.5273 10.0691 17.3042 4.43205C16.178 3.83313 14.7851 3.3914 13.062 3.20436Z" fill="#FFA56A"/>
</g>
<defs>
<clipPath id="clip0_0_996">
<rect width="32" height="32" rx="8" fill="white"/>
</clipPath>
</defs>
</svg>
