<svg width="55" height="57" viewBox="0 0 55 57" fill="none" xmlns="http://www.w3.org/2000/svg">
<path fill-rule="evenodd" clip-rule="evenodd" d="M16.5403 3.04268C17.3936 1.24388 19.2264 0 21.3496 0H33.5096C35.6328 0 37.4656 1.24388 38.3188 3.04268C40.3967 3.05779 42.0162 3.15318 43.4618 3.71819C45.1891 4.39327 46.6915 5.54086 47.7972 7.02971C48.9126 8.53171 49.4363 10.4569 50.157 13.1067L52.4125 21.3793L53.265 23.9369C53.2892 23.9669 53.3132 23.9971 53.3371 24.0276C56.0756 27.5351 54.7715 32.7514 52.1633 43.1839C50.5045 49.8192 49.6751 53.1369 47.2012 55.0684C44.7273 57 41.3076 57 34.4681 57H20.3909C13.5514 57 10.1316 57 7.65771 55.0684C5.18382 53.1369 4.35441 49.8192 2.69558 43.1839C0.0874353 32.7514 -1.21664 27.5351 1.52187 24.0276C1.54584 23.997 1.57 23.9665 1.59437 23.9364L2.44672 21.3793L4.70221 13.1067C5.42291 10.4569 5.94654 8.53171 7.062 7.02971C8.16769 5.54086 9.67009 4.39327 11.3974 3.71819C12.843 3.15319 14.4625 3.05779 16.5403 3.04268ZM16.545 7.60696C14.5329 7.6273 13.7255 7.70414 13.0573 7.9653C12.1272 8.32881 11.3182 8.94674 10.7229 9.74843C10.1875 10.4693 9.87334 11.4765 8.98901 14.7198L7.25756 21.0698C10.3586 20.5202 14.5934 20.5202 20.3909 20.5202H34.4681C40.2657 20.5202 44.5006 20.5202 47.6016 21.0699L45.8702 14.7198C44.9859 11.4765 44.6717 10.4693 44.1363 9.74843C43.541 8.94674 42.732 8.32881 41.8019 7.9653C41.1337 7.70414 40.3263 7.6273 38.3142 7.60696C37.459 9.40053 35.629 10.6399 33.5096 10.6399H21.3496C19.2302 10.6399 17.4002 9.40053 16.545 7.60696Z" fill="#0154C5"/>
</svg>
