<svg width="96" height="96" viewBox="0 0 96 96" fill="none" xmlns="http://www.w3.org/2000/svg">
<path d="M5.37109 48.2542C5.37109 53.8044 6.46428 59.3003 8.58825 64.428C10.7122 69.5557 13.8254 74.2148 17.7499 78.1394C21.6745 82.064 26.3337 85.1771 31.4614 87.3011C36.5891 89.425 42.0849 90.5182 47.6351 90.5182C53.1853 90.5182 58.6811 89.425 63.8088 87.3011C68.9365 85.1771 73.5957 82.064 77.5203 78.1394C81.4448 74.2148 84.558 69.5557 86.6819 64.428C88.8059 59.3003 89.8991 53.8044 89.8991 48.2542C89.8991 37.0451 85.4463 26.2951 77.5203 18.3691C69.5942 10.443 58.8442 5.99023 47.6351 5.99023C36.426 5.99023 25.676 10.443 17.7499 18.3691C9.8239 26.2951 5.37109 37.0451 5.37109 48.2542Z" fill="#E6F1FF"/>
<path d="M69.0386 23.7842H38.0354C34.2194 23.7842 31.1282 26.8754 31.1282 30.6914V37.3586C31.1282 38.165 30.7154 38.9186 30.0386 39.3554L20.237 45.6482C19.5988 46.0586 19.0738 46.6226 18.7098 47.2884C18.3459 47.9542 18.1547 48.7006 18.1538 49.4594V63.2162C18.1538 65.717 20.1842 67.7474 22.685 67.7474H24.1106C24.1106 67.7282 24.1058 67.709 24.1058 67.685C24.1058 62.933 27.9554 59.0834 32.7074 59.0834C37.4594 59.0834 41.309 62.933 41.309 67.685C41.309 67.7042 41.3042 67.7234 41.3042 67.7474H54.0242C54.0242 67.7282 54.0194 67.709 54.0194 67.685C54.0194 62.933 57.869 59.0834 62.621 59.0834C67.373 59.0834 71.2226 62.933 71.2226 67.685V67.7138C73.877 67.4258 75.941 65.1794 75.941 62.4482V30.6914C75.9458 26.8754 72.8498 23.7842 69.0386 23.7842ZM40.901 52.6418C40.901 54.5906 39.317 56.1746 37.3682 56.1746H29.4818C28.7142 56.1746 27.978 55.8696 27.4352 55.3268C26.8924 54.784 26.5874 54.0478 26.5874 53.2802C26.5874 52.5125 26.8924 51.7763 27.4352 51.2335C27.978 50.6907 28.7142 50.3858 29.4818 50.3858H35.1122V46.7666C35.1122 45.9989 35.4172 45.2627 35.96 44.7199C36.5028 44.1771 37.239 43.8722 38.0066 43.8722C38.7743 43.8722 39.5105 44.1771 40.0533 44.7199C40.5961 45.2627 40.901 45.9989 40.901 46.7666V52.6418Z" fill="#025FCA"/>
<path d="M26.7407 67.6895C26.7407 69.2719 27.3693 70.7895 28.4882 71.9084C29.6072 73.0273 31.1247 73.6559 32.7071 73.6559C34.2895 73.6559 35.8071 73.0273 36.926 71.9084C38.0449 70.7895 38.6735 69.2719 38.6735 67.6895C38.6735 66.1072 38.0449 64.5896 36.926 63.4707C35.8071 62.3517 34.2895 61.7231 32.7071 61.7231C31.1247 61.7231 29.6072 62.3517 28.4882 63.4707C27.3693 64.5896 26.7407 66.1072 26.7407 67.6895Z" fill="#0373F3"/>
<path d="M56.6401 67.6895C56.6401 69.2719 57.2687 70.7895 58.3877 71.9084C59.5066 73.0273 61.0242 73.6559 62.6065 73.6559C64.1889 73.6559 65.7065 73.0273 66.8254 71.9084C67.9443 70.7895 68.5729 69.2719 68.5729 67.6895C68.5729 66.1072 67.9443 64.5896 66.8254 63.4707C65.7065 62.3517 64.1889 61.7231 62.6065 61.7231C61.0242 61.7231 59.5066 62.3517 58.3877 63.4707C57.2687 64.5896 56.6401 66.1072 56.6401 67.6895Z" fill="#0373F3"/>
<path d="M32.7072 61.7231C29.8224 61.7231 27.4176 63.7679 26.8608 66.4895C30.5088 67.6809 34.3225 68.2868 38.16 68.2847C38.3232 68.2847 38.4816 68.2751 38.6448 68.2703C38.664 68.0783 38.6736 67.8815 38.6736 67.6847C38.6784 64.3919 36.0048 61.7231 32.7072 61.7231Z" fill="#0373F3"/>
<path d="M69.0386 23.7842H38.0354C34.2194 23.7842 31.1282 26.8754 31.1282 30.6914V37.3586C31.1282 38.165 30.7154 38.9186 30.0386 39.3554L20.237 45.6482C19.5988 46.0586 19.0738 46.6226 18.7098 47.2884C18.3459 47.9542 18.1547 48.7006 18.1538 49.4594V62.2898C20.1074 63.5762 22.1858 64.6802 24.3794 65.573C25.3202 61.8434 28.6898 59.0834 32.7074 59.0834C37.4594 59.0834 41.309 62.933 41.309 67.685C41.309 67.7042 41.3042 67.7234 41.3042 67.7474H44.357C48.029 67.1186 51.509 65.9426 54.7154 64.301C55.3597 62.801 56.4178 61.5155 57.766 60.5949C59.1141 59.6743 60.6966 59.1567 62.3282 59.1026C69.8402 52.4306 74.5826 42.7058 74.5826 31.8626C74.5826 29.8706 74.4146 27.917 74.1074 26.0162C72.8498 24.6482 71.045 23.7842 69.0386 23.7842ZM40.901 52.6418C40.901 54.5906 39.317 56.1746 37.3682 56.1746H29.4818C28.7142 56.1746 27.978 55.8696 27.4352 55.3268C26.8924 54.784 26.5874 54.0478 26.5874 53.2802C26.5874 52.5125 26.8924 51.7763 27.4352 51.2335C27.978 50.6907 28.7142 50.3858 29.4818 50.3858H35.1122V46.7666C35.1122 45.9989 35.4172 45.2627 35.96 44.7199C36.5028 44.1771 37.239 43.8722 38.0066 43.8722C38.7743 43.8722 39.5105 44.1771 40.0533 44.7199C40.5961 45.2627 40.901 45.9989 40.901 46.7666V52.6418Z" fill="#0373F3"/>
<path d="M38.0354 23.7842C34.2194 23.7842 31.1282 26.8754 31.1282 30.6914V37.3586C31.1282 38.165 30.7154 38.9186 30.0386 39.3554L20.237 45.6482C19.5988 46.0586 19.0738 46.6225 18.7098 47.2884C18.3459 47.9542 18.1547 48.7006 18.1538 49.4594V53.9378C21.1747 54.8031 24.2952 55.2726 27.437 55.3346C27.0313 54.9301 26.7548 54.4142 26.6425 53.8524C26.5302 53.2907 26.5871 52.7082 26.806 52.1788C27.025 51.6493 27.3961 51.1968 27.8725 50.8785C28.3488 50.5602 28.9089 50.3904 29.4818 50.3906H35.1122V46.7714C35.1122 46.0037 35.4172 45.2675 35.96 44.7247C36.5028 44.1819 37.239 43.877 38.0066 43.877C38.7743 43.877 39.5105 44.1819 40.0533 44.7247C40.5961 45.2675 40.901 46.0037 40.901 46.7714V52.6466C40.901 52.7954 40.8866 52.9394 40.8722 53.0882C53.2802 48.4802 62.4866 37.3106 64.2914 23.789H38.0354V23.7842Z" fill="#3592FD"/>
<path d="M31.1279 30.6913V37.3585C31.1279 38.1649 30.7151 38.9185 30.0383 39.3553L26.3423 41.7265C36.8783 39.5809 45.7583 32.8849 50.8463 23.7793H38.0351C34.2191 23.7841 31.1279 26.8753 31.1279 30.6913Z" fill="#68AEFD"/>
</svg>
