<svg width="40" height="32" viewBox="0 0 40 32" fill="none" xmlns="http://www.w3.org/2000/svg">
<path fill-rule="evenodd" clip-rule="evenodd" d="M0 4C0 1.79086 1.79086 0 4 0H26C28.2091 0 30 1.79086 30 4V6H33.0387C34.2539 6 35.4031 6.55236 36.1622 7.50122L39.1235 11.2028C39.6909 11.912 40 12.7933 40 13.7016V22C40 24.2091 38.2091 26 36 26H34C34 29.3137 31.3137 32 28 32C24.6863 32 22 29.3137 22 26H16C16 29.3137 13.3137 32 10 32C6.68629 32 4 29.3137 4 26C1.79086 26 0 24.2091 0 22V4ZM30 18V10H33.0387L36 13.7016V18H30ZM12 26C12 27.1046 11.1046 28 10 28C8.89543 28 8 27.1046 8 26C8 24.8954 8.89543 24 10 24C11.1046 24 12 24.8954 12 26ZM28 28C29.1046 28 30 27.1046 30 26C30 24.8954 29.1046 24 28 24C26.8954 24 26 24.8954 26 26C26 27.1046 26.8954 28 28 28Z" fill="#0373F3"/>
</svg>
