<svg width="35" height="22" viewBox="0 0 35 22" fill="none" xmlns="http://www.w3.org/2000/svg">
<path d="M33.0567 9.75257H1.30412C0.623712 9.75257 0 10.3196 0 11.0567C0 11.7371 0.567011 12.3608 1.30412 12.3608H33.0567C33.7371 12.3608 34.3609 11.7938 34.3609 11.0567C34.3609 10.3196 33.7371 9.75257 33.0567 9.75257Z" fill="white"/>
<path d="M33.0567 19.3918H1.30412C0.623712 19.3918 0 19.9588 0 20.6959C0 21.433 0.567011 22 1.30412 22H33.0567C33.7371 22 34.3609 21.433 34.3609 20.6959C34.3609 19.9588 33.7371 19.3918 33.0567 19.3918Z" fill="white"/>
<path d="M1.30412 2.60825H33.0567C33.7371 2.60825 34.3609 2.04124 34.3609 1.30412C34.3609 0.56701 33.7938 0 33.0567 0H1.30412C0.623712 0 0 0.56701 0 1.30412C0 2.04124 0.623712 2.60825 1.30412 2.60825Z" fill="white"/>
</svg>
