<svg width="96" height="96" viewBox="0 0 96 96" fill="none" xmlns="http://www.w3.org/2000/svg">
<path d="M5.71191 48.2542C5.71191 53.8044 6.8051 59.3003 8.92907 64.428C11.053 69.5557 14.1662 74.2148 18.0908 78.1394C22.0153 82.064 26.6745 85.1771 31.8022 87.3011C36.9299 89.425 42.4257 90.5182 47.9759 90.5182C53.5261 90.5182 59.0219 89.425 64.1497 87.3011C69.2774 85.1771 73.9365 82.064 77.8611 78.1394C81.7857 74.2148 84.8988 69.5557 87.0228 64.428C89.1467 59.3003 90.2399 53.8044 90.2399 48.2542C90.2399 37.0451 85.7871 26.2951 77.8611 18.3691C69.935 10.443 59.185 5.99023 47.9759 5.99023C36.7668 5.99023 26.0168 10.443 18.0908 18.3691C10.1647 26.2951 5.71191 37.0451 5.71191 48.2542Z" fill="#E6F1FF"/>
<path d="M37.9727 33.4174L52.5023 19.9678C54.8399 17.803 58.6271 17.7838 60.9935 19.9246L70.4159 28.459C71.8175 29.7262 71.8847 31.795 70.5695 33.1438L37.9727 33.4174Z" fill="#0373F3"/>
<path d="M27.5039 33.3888L36.4079 20.0736C37.9823 17.568 41.3183 16.5264 44.2127 17.6352C46.3919 18.4704 48.4319 19.2576 48.3695 19.2576C48.2351 19.2576 33.0287 33.3216 33.0287 33.3216L27.5039 33.3888Z" fill="#68AEFD"/>
<path d="M70.2769 37.7041H26.2657C22.0513 37.7041 18.6289 41.1217 18.6289 45.3409V65.3185C18.6289 69.5329 22.0465 72.9553 26.2657 72.9553H70.2769C74.4913 72.9553 77.9137 69.5377 77.9137 65.3185V45.3361C77.9089 41.1217 74.4913 37.7041 70.2769 37.7041ZM29.8897 59.9905C27.3121 59.9905 25.2241 57.9025 25.2241 55.3249C25.2241 52.7473 27.3121 50.6593 29.8897 50.6593C32.4673 50.6593 34.5553 52.7473 34.5553 55.3249C34.5553 57.9025 32.4673 59.9905 29.8897 59.9905Z" fill="#025FCA"/>
<path d="M26.2657 37.7041C22.0513 37.7041 18.6289 41.1217 18.6289 45.3409V65.3185C18.6289 69.5329 22.0465 72.9553 26.2657 72.9553H56.5153C66.6529 65.2369 73.2001 53.0401 73.2001 39.3121C73.2001 38.9665 73.1953 38.6257 73.1857 38.2849C72.2616 37.9041 71.2716 37.7084 70.2721 37.7089H26.2657V37.7041ZM29.8897 59.9905C27.3121 59.9905 25.2241 57.9025 25.2241 55.3249C25.2241 52.7473 27.3121 50.6593 29.8897 50.6593C32.4673 50.6593 34.5553 52.7473 34.5553 55.3249C34.5553 57.9025 32.4673 59.9905 29.8897 59.9905Z" fill="#0373F3"/>
<path d="M60.3937 33.2258C61.2049 30.197 61.6369 27.0338 61.6369 23.7698C61.6369 22.6226 61.5793 21.485 61.4737 20.3618L60.9889 19.9202C58.6225 17.7794 54.8401 17.7986 52.4977 19.9634L37.9729 33.4178L60.3937 33.2258ZM59.4673 37.7042H26.2657C22.0513 37.7042 18.6289 41.1218 18.6289 45.341V65.3186C18.6289 65.741 18.6721 66.1538 18.7393 66.557C18.9505 66.5618 19.1617 66.5666 19.3777 66.5666C38.0305 66.5618 53.8609 54.4754 59.4673 37.7042ZM29.8897 59.9906C27.3121 59.9906 25.2241 57.9026 25.2241 55.325C25.2241 52.7474 27.3121 50.6594 29.8897 50.6594C32.4673 50.6594 34.5553 52.7474 34.5553 55.325C34.5553 57.9026 32.4673 59.9906 29.8897 59.9906Z" fill="#3592FD"/>
<path d="M42.5761 33.3746C44.8993 30.5042 46.8049 27.3314 48.2161 23.9282L37.9729 33.4178L42.5761 33.3746ZM26.2657 37.7042C22.0513 37.7042 18.6289 41.1218 18.6289 45.341V50.4434C27.0337 48.4274 34.4641 43.9058 40.0753 37.709H26.2657V37.7042Z" fill="#68AEFD"/>
</svg>
