<svg width="96" height="96" viewBox="0 0 96 96" fill="none" xmlns="http://www.w3.org/2000/svg">
<path d="M5.56787 47.827C5.56787 59.0361 10.0207 69.7861 17.9467 77.7121C25.8727 85.6382 36.6228 90.091 47.8319 90.091C59.041 90.091 69.791 85.6382 77.717 77.7121C85.6431 69.7861 90.0959 59.0361 90.0959 47.827C90.0959 36.6179 85.6431 25.8679 77.717 17.9418C69.791 10.0158 59.041 5.56299 47.8319 5.56299C36.6228 5.56299 25.8727 10.0158 17.9467 17.9418C10.0207 25.8679 5.56787 36.6179 5.56787 47.827Z" fill="#E6F1FF"/>
<path d="M48.0625 43.7088L72.9985 29.3424C72.8977 29.2752 72.7969 29.2128 72.6913 29.1504L51.8497 17.0448C50.705 16.3804 49.4055 16.0288 48.0819 16.0254C46.7583 16.022 45.4571 16.367 44.3089 17.0256L23.4049 29.0256C23.2993 29.0832 23.1985 29.1504 23.1025 29.2128L48.0625 43.7088Z" fill="#0373F3"/>
<path d="M51.4512 78.4368C51.5328 78.3936 51.6096 78.3552 51.6912 78.312L72.5952 66.312C74.9328 64.9728 76.3728 62.4864 76.3824 59.7936L76.4448 35.688C76.4448 35.568 76.44 35.4528 76.4352 35.3328L51.456 49.7232V78.4368H51.4512ZM44.5488 49.656L19.632 35.1792C19.6272 35.2992 19.6176 35.4192 19.6176 35.544L19.5552 59.6448C19.5504 62.3376 20.9808 64.8288 23.3088 66.1824L44.1504 78.288C44.28 78.3648 44.4096 78.432 44.544 78.4992V49.656H44.5488Z" fill="#025FCA"/>
<path d="M19.6176 35.544L19.5552 59.6496C19.5504 62.3424 20.9808 64.8336 23.3088 66.1872L30.072 70.1136C34.8757 70.8522 39.7704 70.7629 44.544 69.8496V49.656L19.632 35.1792C19.6224 35.304 19.6176 35.424 19.6176 35.544ZM51.456 67.9008C63.1008 63.5088 72.2928 54.1296 76.4304 42.3648L76.4496 35.688C76.4496 35.568 76.4448 35.4528 76.44 35.3328L51.456 49.728V67.9008Z" fill="#0373F3"/>
<path d="M19.6178 35.544L19.5698 55.2529C21.3458 55.4785 23.1506 55.5985 24.989 55.5985C32.0498 55.5985 38.7026 53.8657 44.549 50.8081V49.6609L19.6322 35.1793C19.6226 35.3041 19.6178 35.424 19.6178 35.544ZM60.1922 36.72C62.5586 33.168 64.397 29.2368 65.6066 25.0368L51.845 17.0448C50.7003 16.3804 49.4008 16.0288 48.0772 16.0254C46.7536 16.022 45.4523 16.367 44.3042 17.0256L23.4002 29.0257C23.2946 29.0833 23.1938 29.1505 23.0978 29.2129L48.0578 43.7089L60.1922 36.72Z" fill="#3592FD"/>
<path d="M51.8449 17.0448C50.7001 16.3804 49.4007 16.0288 48.077 16.0254C46.7534 16.022 45.4522 16.367 44.3041 17.0256L23.4001 29.0257C23.2945 29.0833 23.1937 29.1505 23.0977 29.2129L34.2337 35.6785C41.9802 31.5365 48.2509 25.0931 52.1809 17.2368L51.8449 17.0448Z" fill="#68AEFD"/>
</svg>
