<svg width="22" height="22" viewBox="0 0 22 22" fill="none" xmlns="http://www.w3.org/2000/svg">
<path d="M8.30162 1.80972L9.19401 3.40874C9.99934 4.85177 9.67605 6.74477 8.40766 8.01317C8.40766 8.01317 6.86914 9.5517 9.65863 12.3412C12.4481 15.1306 13.9867 13.5922 13.9867 13.5922C15.2551 12.3238 17.1481 12.0005 18.5911 12.8058L20.1901 13.6982C22.3691 14.9143 22.6264 17.9701 20.7111 19.8854C19.5603 21.0362 18.1504 21.9317 16.5919 21.9908C13.9682 22.0903 9.51256 21.4263 5.04305 16.9568C0.573546 12.4873 -0.0904542 8.03162 0.00900845 5.40795C0.0680921 3.84942 0.963597 2.43955 2.11447 1.28868C4.02976 -0.626608 7.08556 -0.369271 8.30162 1.80972Z" fill="white"/>
</svg>
