<svg width="40" height="40" viewBox="0 0 40 40" fill="none" xmlns="http://www.w3.org/2000/svg">
<path fill-rule="evenodd" clip-rule="evenodd" d="M40 20C40 31.0457 31.0457 40 20 40C8.9543 40 0 31.0457 0 20C0 8.9543 8.9543 0 20 0C31.0457 0 40 8.9543 40 20ZM6.92112 18.1667C7.66663 11.5998 13.2481 6.5 20.0191 6.5C24.2959 6.5 28.0978 8.53586 30.5041 11.6849C31.0071 12.3432 30.8812 13.2845 30.223 13.7875C29.5647 14.2905 28.6234 14.1647 28.1204 13.5064C26.2578 11.0689 23.3225 9.5 20.0191 9.5C14.9043 9.5 10.6728 13.2644 9.9466 18.1667H10.673C11.2799 18.1667 11.827 18.5324 12.0591 19.0931C12.2911 19.6539 12.1624 20.2992 11.733 20.7281L9.39646 23.0614C8.81084 23.6462 7.86221 23.6462 7.27659 23.0614L4.94006 20.7281C4.51064 20.2992 4.38193 19.6539 4.61398 19.0931C4.84604 18.5324 5.39312 18.1667 6 18.1667H6.92112ZM32.7235 16.9386C32.1378 16.3538 31.1892 16.3538 30.6036 16.9386L28.2671 19.2719C27.8376 19.7008 27.7089 20.3461 27.941 20.9069C28.173 21.4676 28.7201 21.8333 29.327 21.8333H30.0534C29.3273 26.7356 25.0958 30.5 19.9809 30.5C16.6929 30.5 13.7697 28.9457 11.9058 26.5277C11.4 25.8715 10.4582 25.7496 9.80203 26.2554C9.1459 26.7611 9.02399 27.703 9.52975 28.3591C11.9377 31.4831 15.7241 33.5 19.9809 33.5C26.752 33.5 32.3334 28.4002 33.0789 21.8333H34C34.6069 21.8333 35.154 21.4676 35.3861 20.9069C35.6181 20.3461 35.4894 19.7008 35.06 19.2719L32.7235 16.9386Z" fill="#0373F3"/>
</svg>
