<svg width="51" height="51" viewBox="0 0 51 51" fill="none" xmlns="http://www.w3.org/2000/svg">
<path fill-rule="evenodd" clip-rule="evenodd" d="M24.314 3.55814C12.8508 3.55814 3.55814 12.8508 3.55814 24.314C3.55814 35.7771 12.8508 45.0698 24.314 45.0698C35.7771 45.0698 45.0698 35.7771 45.0698 24.314C45.0698 12.8508 35.7771 3.55814 24.314 3.55814ZM0 24.314C0 10.8857 10.8857 0 24.314 0C37.7422 0 48.6279 10.8857 48.6279 24.314C48.6279 30.3877 46.4008 35.9413 42.7187 40.2027L50.4789 47.9629C51.1737 48.6577 51.1737 49.7841 50.4789 50.4789C49.7841 51.1737 48.6577 51.1737 47.9629 50.4789L40.2027 42.7187C35.9413 46.4008 30.3877 48.6279 24.314 48.6279C10.8857 48.6279 0 37.7422 0 24.314Z" fill="white"/>
</svg>
