<svg width="22" height="27" viewBox="0 0 22 27" fill="none" xmlns="http://www.w3.org/2000/svg">
<path fill-rule="evenodd" clip-rule="evenodd" d="M10.8696 3.9165e-07H10.7304C8.46205 -1.91153e-05 6.66538 -3.45631e-05 5.25926 0.19231C3.81216 0.390261 2.64089 0.807339 1.71719 1.74714C0.793498 2.68695 0.383571 3.87865 0.189013 5.351C-3.39706e-05 6.78163 -1.87876e-05 8.60963 3.84935e-07 10.9175V16.0825C-1.87876e-05 18.3904 -3.39706e-05 20.2184 0.189013 21.649C0.383571 23.1213 0.793498 24.3131 1.71719 25.2529C2.64089 26.1927 3.81216 26.6097 5.25926 26.8077C6.66537 27 8.46202 27 10.7303 27H10.8696C13.1379 27 14.9346 27 16.3407 26.8077C17.7878 26.6097 18.9591 26.1927 19.8828 25.2529C20.8065 24.3131 21.2164 23.1213 21.411 21.649C21.6 20.2184 21.6 18.3904 21.6 16.0825V10.9175C21.6 8.60967 21.6 6.78163 21.411 5.351C21.2164 3.87865 20.8065 2.68695 19.8828 1.74714C18.9591 0.807339 17.7878 0.390261 16.3407 0.19231C14.9346 -3.45631e-05 13.138 -1.91153e-05 10.8696 3.9165e-07ZM6.17143 22.2907C6.17143 21.7705 6.58589 21.3488 7.09714 21.3488H14.5029C15.0141 21.3488 15.4286 21.7705 15.4286 22.2907C15.4286 22.8109 15.0141 23.2326 14.5029 23.2326H7.09714C6.58589 23.2326 6.17143 22.8109 6.17143 22.2907Z" fill="white"/>
</svg>
