<svg width="96" height="96" viewBox="0 0 96 96" fill="none" xmlns="http://www.w3.org/2000/svg">
<path opacity="0.5" d="M12 52.1474C12 47.7354 12 45.5294 13.5706 44.2427C14.1282 43.7859 14.8059 43.4203 15.5612 43.1687C17.6885 42.4603 20.4844 43.1579 26.0761 44.5531C30.3451 45.6183 32.4795 46.1509 34.6364 46.0957C35.4286 46.0755 36.2161 45.9966 36.9874 45.8601C39.0876 45.4885 40.9597 44.5542 44.7039 42.6858L50.2334 39.9265C55.0295 37.5331 57.4276 36.3364 60.1803 36.0605C62.933 35.7845 65.6672 36.4667 71.1357 37.8312L75.7947 38.9937C79.7548 39.9818 81.7349 40.4758 82.8675 41.652C84 42.8282 84 44.3905 84 47.5152V71.8526C84 76.2646 84 78.4706 82.4294 79.7573C81.8718 80.2141 81.1941 80.5797 80.4388 80.8313C78.3115 81.5397 75.5156 80.8421 69.9239 79.4469C65.6549 78.3817 63.5205 77.8491 61.3636 77.9043C60.5714 77.9245 59.7839 78.0034 59.0126 78.1399C56.9124 78.5115 55.0403 79.4458 51.2961 81.3142L45.7666 84.0735C40.9705 86.4669 38.5724 87.6636 35.8197 87.9395C33.067 88.2155 30.3328 87.5333 24.8643 86.1688L20.2053 85.0063C16.2452 84.0182 14.2651 83.5242 13.1325 82.348C12 81.1718 12 79.6095 12 76.4848V52.1474Z" fill="#025FCA"/>
<path fill-rule="evenodd" clip-rule="evenodd" d="M48 8C34.7452 8 24 18.2085 24 30.8012C24 43.2953 31.66 57.8748 43.6112 63.0885C46.3972 64.3038 49.6028 64.3038 52.3888 63.0885C64.34 57.8748 72 43.2953 72 30.8012C72 18.2085 61.2548 8 48 8ZM48 40C52.4183 40 56 36.4183 56 32C56 27.5817 52.4183 24 48 24C43.5817 24 40 27.5817 40 32C40 36.4183 43.5817 40 48 40Z" fill="#025FCA"/>
</svg>
