<svg width="40" height="40" viewBox="0 0 40 40" fill="none" xmlns="http://www.w3.org/2000/svg">
<path d="M40 20C40 31.0457 31.0457 40 20 40C8.9543 40 0 31.0457 0 20C0 8.9543 8.9543 0 20 0C31.0457 0 40 8.9543 40 20Z" fill="#0373F3"/>
<path fill-rule="evenodd" clip-rule="evenodd" d="M20 10.5C20.8284 10.5 21.5 11.1716 21.5 12V19.3787L26.0607 23.9393C26.6464 24.5251 26.6464 25.4749 26.0607 26.0607C25.4749 26.6464 24.5251 26.6464 23.9393 26.0607L18.9393 21.0607C18.658 20.7794 18.5 20.3978 18.5 20V12C18.5 11.1716 19.1716 10.5 20 10.5Z" fill="white"/>
</svg>
