<svg width="96" height="96" viewBox="0 0 96 96" fill="none" xmlns="http://www.w3.org/2000/svg">
<path d="M5.53906 47.7743C5.53906 58.9834 9.99186 69.7334 17.9179 77.6594C25.8439 85.5855 36.594 90.0383 47.8031 90.0383C59.0122 90.0383 69.7622 85.5855 77.6882 77.6594C85.6143 69.7334 90.0671 58.9834 90.0671 47.7743C90.0671 36.5651 85.6143 25.8151 77.6882 17.8891C69.7622 9.96305 59.0122 5.51025 47.8031 5.51025C36.594 5.51025 25.8439 9.96305 17.9179 17.8891C9.99186 25.8151 5.53906 36.5651 5.53906 47.7743Z" fill="#E6F1FF"/>
<path d="M71.6542 39.4178C70.8478 27.4802 60.6766 18.0098 48.2926 18.0098C35.9566 18.0098 25.8286 27.3986 24.9406 39.2642C21.6238 40.6802 19.291 43.973 19.291 47.8034V57.3266C19.291 62.4434 23.4526 66.605 28.5694 66.605H32.1454C34.003 66.605 35.5054 65.1026 35.5054 63.245V41.885C35.5054 40.0274 34.003 38.525 32.1454 38.525H31.7758C32.9854 30.7298 39.931 24.7298 48.2878 24.7298C56.6494 24.7298 63.5902 30.725 64.8046 38.525H64.1278C62.2702 38.525 60.7678 40.0274 60.7678 41.885V63.245C60.7678 64.4594 61.4158 65.5202 62.3806 66.1106C60.187 68.2418 56.6974 70.6754 51.7678 71.3714C51.1535 70.9132 50.4077 70.6657 49.6414 70.6658H47.1934C46.2437 70.6658 45.3329 71.043 44.6614 71.7146C43.9899 72.3861 43.6126 73.2969 43.6126 74.2466C43.6126 75.1963 43.9899 76.107 44.6614 76.7786C45.3329 77.4501 46.2437 77.8274 47.1934 77.8274H49.6414C50.7022 77.8274 51.6526 77.3618 52.3102 76.6274C61.6798 75.4034 67.0222 69.269 68.9806 66.5042C73.4926 65.8754 76.9774 62.0066 76.9774 57.3218V47.8034C76.987 44.1026 74.7982 40.9058 71.6542 39.4178Z" fill="#025FCA"/>
<path d="M76.6943 45.509C76.0031 42.8114 74.1311 40.589 71.6591 39.4178C70.8527 27.4802 60.6815 18.0098 48.2975 18.0098C35.9615 18.0098 25.8335 27.3986 24.9455 39.2642C21.6287 40.6802 19.2959 43.973 19.2959 47.8034V57.3266C19.2959 62.4434 23.4575 66.605 28.5743 66.605H32.1503C34.0079 66.605 35.5103 65.1026 35.5103 63.245V41.885C35.5103 40.0274 34.0079 38.525 32.1503 38.525H31.7759C32.9855 30.7298 39.9311 24.7298 48.2879 24.7298C56.6495 24.7298 63.5903 30.725 64.8047 38.525H64.1279C62.2703 38.525 60.7679 40.0274 60.7679 41.885V63.245C60.7679 63.6866 60.8543 64.1042 61.0079 64.4882C67.9487 59.885 73.4495 53.285 76.6943 45.509Z" fill="#0373F3"/>
<path d="M48.2926 18.0098C35.9566 18.0098 25.8286 27.3986 24.9406 39.2642C21.6238 40.6802 19.291 43.973 19.291 47.8034V55.9586C21.5086 56.3186 23.7886 56.5106 26.107 56.5106C29.3374 56.5106 32.4814 56.1458 35.5054 55.4594V41.885C35.5054 40.0274 34.003 38.525 32.1454 38.525H31.7758C32.9854 30.7298 39.931 24.7298 48.2878 24.7298C54.979 24.7298 60.7582 28.5698 63.4222 34.0994C64.7001 31.7015 65.7434 29.1859 66.5374 26.5874C62.2414 21.365 55.6606 18.0098 48.2926 18.0098Z" fill="#3592FD"/>
<path d="M48.2926 24.7298C48.5998 24.7298 48.9022 24.7394 49.2094 24.7586C50.6878 22.8002 52.003 20.7122 53.131 18.509C51.571 18.1874 49.9534 18.0098 48.2926 18.0098C35.9566 18.0098 25.8286 27.3986 24.9406 39.2642C23.947 39.6866 23.0446 40.2818 22.2622 41.0066C25.5446 40.4772 28.7526 39.5604 31.819 38.2754C33.139 30.6002 40.0222 24.7298 48.2926 24.7298Z" fill="#68AEFD"/>
</svg>
