<svg width="60" height="60" viewBox="0 0 60 60" fill="none" xmlns="http://www.w3.org/2000/svg">
<path fill-rule="evenodd" clip-rule="evenodd" d="M60 30C60 46.5685 46.5685 60 30 60C13.4315 60 0 46.5685 0 30C0 13.4315 13.4315 0 30 0C46.5685 0 60 13.4315 60 30ZM39 21C39 25.9706 34.9706 30 30 30C25.0294 30 21 25.9706 21 21C21 16.0294 25.0294 12 30 12C34.9706 12 39 16.0294 39 21ZM30 55.5C35.3521 55.5 40.3191 53.8511 44.4208 51.0336C46.2323 49.7892 47.0065 47.4187 45.9533 45.4897C43.7699 41.4908 39.2707 39 29.9998 39C20.7291 39 16.2299 41.4907 14.0464 45.4895C12.9931 47.4185 13.7673 49.789 15.5789 51.0334C19.6806 53.851 24.6477 55.5 30 55.5Z" fill="#0154C5"/>
</svg>
